<svg xmlns="http://www.w3.org/2000/svg" viewBox="0 0 40 40" fill="none">
  <defs>
    <linearGradient id="logoGrad" x1="0%" y1="0%" x2="100%" y2="100%">
      <stop offset="0%" stop-color="#7C3AED"/>
      <stop offset="50%" stop-color="#3B82F6"/>
      <stop offset="100%" stop-color="#06B6D4"/>
    </linearGradient>
  </defs>
  <!-- Recursive infinity loop -->
  <path d="M11.5 20C11.5 15.8 14.5 12.5 18 12.5C20.5 12.5 22.5 14 23.8 16.2L26.2 19.8C27.5 22 29.5 23.5 32 23.5C35.5 23.5 38.5 20.2 38.5 16C38.5 11.8 35.5 8.5 32 8.5C29 8.5 26.6 10.5 25.5 13.5" stroke="url(#logoGrad)" stroke-width="3" stroke-linecap="round" fill="none"/>
  <path d="M28.5 20C28.5 24.2 25.5 27.5 22 27.5C19.5 27.5 17.5 26 16.2 23.8L13.8 20.2C12.5 18 10.5 16.5 8 16.5C4.5 16.5 1.5 19.8 1.5 24C1.5 28.2 4.5 31.5 8 31.5C11 31.5 13.4 29.5 14.5 26.5" stroke="url(#logoGrad)" stroke-width="3" stroke-linecap="round" fill="none"/>
</svg>
